<svg width="81" height="18" viewBox="0 0 81 18" fill="none" xmlns="http://www.w3.org/2000/svg">
<path fill-rule="evenodd" clip-rule="evenodd" d="M4.23359 10.2993L3.45468 11.7655V16.691H0.934677V0.654588H3.45468V7.64186L6.75359 0.654588H9.27359L5.7685 7.80222L9.27359 16.691H6.68486L4.23359 10.2993ZM12.831 13.0026C12.831 13.583 12.9493 13.9915 13.1861 14.2282C13.4228 14.465 13.7397 14.5833 14.1368 14.5833C14.5339 14.5833 14.8508 14.465 15.0875 14.2282C15.3242 13.9915 15.4426 13.583 15.4426 13.0026V4.34295C15.4426 3.76258 15.3242 3.35404 15.0875 3.11731C14.8508 2.88058 14.5339 2.76222 14.1368 2.76222C13.7397 2.76222 13.4228 2.88058 13.1861 3.11731C12.9493 3.35404 12.831 3.76258 12.831 4.34295V13.0026ZM10.3111 4.50331C10.3111 3.20512 10.6395 2.20859 11.2962 1.51368C11.9529 0.818765 12.8998 0.471313 14.1369 0.471313C15.374 0.471313 16.3209 0.818765 16.9776 1.51368C17.6344 2.20859 17.9627 3.20512 17.9627 4.50331V12.8422C17.9627 14.1404 17.6344 15.1369 16.9776 15.8319C16.3209 16.5268 15.374 16.8742 14.1369 16.8742C12.8998 16.8742 11.9529 16.5268 11.2962 15.8319C10.6395 15.1369 10.3111 14.1404 10.3111 12.8422V4.50331ZM22.0927 5.07604V16.691H19.8247V0.654588H22.9862L25.5749 10.2535V0.654588H27.82V16.691H25.2313L22.0927 5.07604ZM29.5679 4.50331C29.5679 3.20512 29.8772 2.20859 30.4957 1.51368C31.1143 0.818765 32.0421 0.471313 33.2792 0.471313C34.5163 0.471313 35.4441 0.818765 36.0626 1.51368C36.6812 2.20859 36.9905 3.20512 36.9905 4.50331V5.00731H34.6079V4.34295C34.6079 3.76258 34.4972 3.35404 34.2757 3.11731C34.0543 2.88058 33.745 2.76222 33.3479 2.76222C32.9508 2.76222 32.6416 2.88058 32.4201 3.11731C32.1986 3.35404 32.0879 3.76258 32.0879 4.34295C32.0879 4.89277 32.2101 5.37767 32.4545 5.79768C32.6988 6.21768 33.0043 6.61477 33.3708 6.98895C33.7374 7.36313 34.1306 7.73731 34.5506 8.11149C34.9706 8.48568 35.3639 8.89422 35.7305 9.33713C36.097 9.78004 36.4025 10.284 36.6468 10.8491C36.8912 11.4142 37.0134 12.0786 37.0134 12.8422C37.0134 14.1404 36.6965 15.1369 36.0626 15.8319C35.4288 16.5268 34.4934 16.8742 33.2563 16.8742C32.0192 16.8742 31.0837 16.5268 30.4499 15.8319C29.8161 15.1369 29.4992 14.1404 29.4992 12.8422V11.8571H31.8817V13.0026C31.8817 13.583 32.0001 13.9877 32.2368 14.2168C32.4735 14.4459 32.7905 14.5604 33.1875 14.5604C33.5846 14.5604 33.9015 14.4459 34.1383 14.2168C34.375 13.9877 34.4934 13.583 34.4934 13.0026C34.4934 12.4528 34.3712 11.9679 34.1268 11.5479C33.8825 11.1279 33.577 10.7308 33.2105 10.3566C32.8439 9.9824 32.4506 9.60822 32.0306 9.23404C31.6106 8.85986 31.2174 8.45132 30.8508 8.0084C30.4843 7.56549 30.1788 7.0615 29.9345 6.4964C29.6901 5.93131 29.5679 5.26695 29.5679 4.50331ZM37.9818 0.654588H45.7709V2.9455H43.1364V16.691H40.6164V2.9455H37.9818V0.654588ZM52.3984 16.691C52.3678 16.584 52.3373 16.4848 52.3067 16.3931C52.2762 16.3015 52.2495 16.187 52.2266 16.0495C52.2036 15.912 52.1884 15.7364 52.1807 15.5226C52.1731 15.3088 52.1693 15.0415 52.1693 14.7208V12.2008C52.1693 11.4524 52.0395 10.9255 51.7798 10.62C51.5202 10.3146 51.1002 10.1619 50.5198 10.1619H49.6493V16.691H47.1293V0.654588H50.9322C52.2457 0.654588 53.1964 0.960039 53.7844 1.57095C54.3724 2.18186 54.6664 3.10585 54.6664 4.34295V5.60295C54.6664 7.25241 54.1166 8.33677 53.0169 8.85604C53.6584 9.11568 54.0975 9.53949 54.3342 10.1275C54.5709 10.7155 54.6893 11.4295 54.6893 12.2695V14.7437C54.6893 15.1408 54.7046 15.4882 54.7351 15.786C54.7656 16.0839 54.842 16.3855 54.9642 16.691H52.3984ZM49.6492 2.9455V7.87095H50.6343C51.1077 7.87095 51.4781 7.74877 51.7454 7.50441C52.0126 7.26004 52.1463 6.81714 52.1463 6.17568V4.59495C52.1463 4.01459 52.0432 3.59459 51.837 3.33495C51.6308 3.07531 51.3063 2.9455 50.8633 2.9455H49.6492ZM59.0027 0.654588V13.0255C59.0027 13.6059 59.121 14.0106 59.3578 14.2397C59.5945 14.4688 59.9114 14.5833 60.3085 14.5833C60.7056 14.5833 61.0225 14.4688 61.2592 14.2397C61.496 14.0106 61.6143 13.6059 61.6143 13.0255V0.654588H63.9969V12.8651C63.9969 14.1633 63.68 15.1599 63.0461 15.8548C62.4123 16.5497 61.4769 16.8971 60.2398 16.8971C59.0027 16.8971 58.0672 16.5497 57.4334 15.8548C56.7996 15.1599 56.4827 14.1633 56.4827 12.8651V0.654588H59.0027ZM72.8594 0.654588H80.6485V2.9455H78.0139V16.691H75.4939V2.9455H72.8594V0.654588Z" fill="#171819"/>
<path fill-rule="evenodd" clip-rule="evenodd" d="M65.1939 8.98834L71.7394 0.806519V17.1702L65.1939 8.98834Z" fill="#00A4E5"/>
</svg>
